<mxfile host="app.diagrams.net" agent="Mozilla/5.0 (Windows NT 10.0; Win64; x64) AppleWebKit/537.36 (KHTML, like Gecko) Chrome/131.0.0.0 Safari/537.36" version="26.0.5">
  <diagram name="Seite-1" id="JmHfdQtYSwg-m6pqUsSN">
    <mxGraphModel dx="589" dy="439" grid="1" gridSize="10" guides="1" tooltips="1" connect="1" arrows="1" fold="1" page="1" pageScale="1" pageWidth="827" pageHeight="1169" math="0" shadow="0">
      <root>
        <mxCell id="0" />
        <mxCell id="1" parent="0" />
        <mxCell id="vqpHuMG-jN4FjOBjFSiy-4" value="&lt;div&gt;Benutzer&lt;/div&gt;&lt;div&gt;&lt;br&gt;&lt;/div&gt;" style="shape=umlActor;verticalLabelPosition=bottom;verticalAlign=top;html=1;outlineConnect=0;" parent="1" vertex="1">
          <mxGeometry x="130" y="375" width="30" height="60" as="geometry" />
        </mxCell>
        <mxCell id="vqpHuMG-jN4FjOBjFSiy-5" value="" style="rounded=0;whiteSpace=wrap;html=1;" parent="1" vertex="1">
          <mxGeometry x="240" y="200" width="320" height="330" as="geometry" />
        </mxCell>
        <mxCell id="vqpHuMG-jN4FjOBjFSiy-11" value="Verzeichnis in Monitoring aufnehmen" style="ellipse;whiteSpace=wrap;html=1;" parent="1" vertex="1">
          <mxGeometry x="250" y="290" width="110" height="70" as="geometry" />
        </mxCell>
        <mxCell id="vqpHuMG-jN4FjOBjFSiy-12" value="Verzeichnis aus Monitoring entfernen" style="ellipse;whiteSpace=wrap;html=1;" parent="1" vertex="1">
          <mxGeometry x="440" y="290" width="110" height="70" as="geometry" />
        </mxCell>
        <mxCell id="vqpHuMG-jN4FjOBjFSiy-15" value="Monitoring auswerten" style="ellipse;whiteSpace=wrap;html=1;" parent="1" vertex="1">
          <mxGeometry x="250" y="370" width="110" height="70" as="geometry" />
        </mxCell>
        <mxCell id="vqpHuMG-jN4FjOBjFSiy-16" value="Suche nach Dateien in Verzeichnis" style="ellipse;whiteSpace=wrap;html=1;" parent="1" vertex="1">
          <mxGeometry x="250" y="210" width="110" height="70" as="geometry" />
        </mxCell>
        <mxCell id="vqpHuMG-jN4FjOBjFSiy-17" value="Datei durch KI inspizieren lassen" style="ellipse;whiteSpace=wrap;html=1;" parent="1" vertex="1">
          <mxGeometry x="250" y="450" width="110" height="70" as="geometry" />
        </mxCell>
        <mxCell id="vqpHuMG-jN4FjOBjFSiy-18" value="Datei leeren bzw. lÃ¶schen" style="ellipse;whiteSpace=wrap;html=1;" parent="1" vertex="1">
          <mxGeometry x="370" y="450" width="110" height="70" as="geometry" />
        </mxCell>
        <mxCell id="vqpHuMG-jN4FjOBjFSiy-19" value="extend" style="endArrow=open;endSize=12;dashed=1;html=1;rounded=0;entryX=1;entryY=0.5;entryDx=0;entryDy=0;exitX=0;exitY=0.5;exitDx=0;exitDy=0;" parent="1" source="vqpHuMG-jN4FjOBjFSiy-12" target="vqpHuMG-jN4FjOBjFSiy-11" edge="1">
          <mxGeometry width="160" relative="1" as="geometry">
            <mxPoint x="-240" y="660" as="sourcePoint" />
            <mxPoint x="-80" y="660" as="targetPoint" />
          </mxGeometry>
        </mxCell>
        <mxCell id="vqpHuMG-jN4FjOBjFSiy-20" value="" style="endArrow=none;html=1;rounded=0;entryX=0;entryY=0.5;entryDx=0;entryDy=0;exitX=1;exitY=0.3333333333333333;exitDx=0;exitDy=0;exitPerimeter=0;" parent="1" source="vqpHuMG-jN4FjOBjFSiy-4" target="vqpHuMG-jN4FjOBjFSiy-16" edge="1">
          <mxGeometry width="50" height="50" relative="1" as="geometry">
            <mxPoint x="30" y="350" as="sourcePoint" />
            <mxPoint x="80" y="300" as="targetPoint" />
          </mxGeometry>
        </mxCell>
        <mxCell id="vqpHuMG-jN4FjOBjFSiy-21" value="" style="endArrow=none;html=1;rounded=0;entryX=0;entryY=0.5;entryDx=0;entryDy=0;exitX=1;exitY=0.3333333333333333;exitDx=0;exitDy=0;exitPerimeter=0;" parent="1" source="vqpHuMG-jN4FjOBjFSiy-4" target="vqpHuMG-jN4FjOBjFSiy-11" edge="1">
          <mxGeometry width="50" height="50" relative="1" as="geometry">
            <mxPoint x="160" y="390" as="sourcePoint" />
            <mxPoint x="260" y="255" as="targetPoint" />
          </mxGeometry>
        </mxCell>
        <mxCell id="vqpHuMG-jN4FjOBjFSiy-22" value="" style="endArrow=none;html=1;rounded=0;entryX=0;entryY=0.5;entryDx=0;entryDy=0;exitX=1;exitY=0.3333333333333333;exitDx=0;exitDy=0;exitPerimeter=0;" parent="1" source="vqpHuMG-jN4FjOBjFSiy-4" target="vqpHuMG-jN4FjOBjFSiy-15" edge="1">
          <mxGeometry width="50" height="50" relative="1" as="geometry">
            <mxPoint x="170" y="405" as="sourcePoint" />
            <mxPoint x="260" y="335" as="targetPoint" />
          </mxGeometry>
        </mxCell>
        <mxCell id="vqpHuMG-jN4FjOBjFSiy-23" value="" style="endArrow=none;html=1;rounded=0;entryX=0;entryY=0.5;entryDx=0;entryDy=0;exitX=1;exitY=0.3333333333333333;exitDx=0;exitDy=0;exitPerimeter=0;" parent="1" source="vqpHuMG-jN4FjOBjFSiy-4" target="vqpHuMG-jN4FjOBjFSiy-17" edge="1">
          <mxGeometry width="50" height="50" relative="1" as="geometry">
            <mxPoint x="170" y="405" as="sourcePoint" />
            <mxPoint x="260" y="415" as="targetPoint" />
          </mxGeometry>
        </mxCell>
        <mxCell id="vqpHuMG-jN4FjOBjFSiy-24" value="" style="endArrow=none;html=1;rounded=0;entryX=0;entryY=0.5;entryDx=0;entryDy=0;exitX=1;exitY=0.3333333333333333;exitDx=0;exitDy=0;exitPerimeter=0;" parent="1" source="vqpHuMG-jN4FjOBjFSiy-4" edge="1">
          <mxGeometry width="50" height="50" relative="1" as="geometry">
            <mxPoint x="160" y="391" as="sourcePoint" />
            <mxPoint x="369.99999999999966" y="481" as="targetPoint" />
            <Array as="points">
              <mxPoint x="230" y="446" />
              <mxPoint x="300" y="446" />
              <mxPoint x="360" y="446" />
            </Array>
          </mxGeometry>
        </mxCell>
        <mxCell id="N42FVRUgxyGAxWD0XWEc-1" value="TraceSentry" style="text;html=1;align=center;verticalAlign=middle;whiteSpace=wrap;rounded=0;" parent="1" vertex="1">
          <mxGeometry x="360" y="200" width="80" height="30" as="geometry" />
        </mxCell>
      </root>
    </mxGraphModel>
  </diagram>
</mxfile>
